<svg width="138" height="19" viewBox="0 0 138 19" fill="none" xmlns="http://www.w3.org/2000/svg">
<g id="New_Sovcombank_logo_(updated_version) 1" clip-path="url(#clip0_62_61194)">
<path id="Vector" d="M27.4766 3.65674C29.3777 3.65674 30.9179 4.55176 31.5676 5.21663L30.4847 6.62309C29.9553 6.11165 28.7761 5.42121 27.4766 5.42121C25.0942 5.42121 23.6022 7.1601 23.6022 9.5383C23.6022 11.9165 25.022 13.6554 27.5007 13.6554C28.9446 13.6554 30.1959 12.8371 30.7253 12.2745L31.7601 13.7321C31.1104 14.4481 29.474 15.4199 27.4766 15.4199C23.9632 15.4199 21.7974 12.9138 21.7974 9.51273C21.7974 6.1628 24.0354 3.65674 27.4766 3.65674Z" fill="#213A8B"/>
<path id="Vector_2" d="M38.3058 3.65674C41.5545 3.65674 43.9129 6.1628 43.9129 9.56387C43.9129 12.9649 41.5545 15.471 38.3058 15.471C35.0571 15.471 32.6987 12.9649 32.6987 9.56387C32.6987 6.1628 35.0571 3.65674 38.3058 3.65674ZM38.3058 13.681C40.4957 13.681 42.1321 11.9165 42.1321 9.56387C42.1321 7.18568 40.5197 5.44678 38.3058 5.44678C36.1159 5.44678 34.4795 7.21125 34.4795 9.56387C34.4795 11.9165 36.1159 13.681 38.3058 13.681Z" fill="#213A8B"/>
<path id="Vector_3" d="M55.0787 11.9166C55.0787 13.5788 54.068 15.1899 51.4931 15.1899H45.8379V3.9126H51.1562C53.322 3.9126 54.5493 5.31906 54.5493 6.93009C54.5493 7.82511 54.1643 8.64342 53.2257 9.30829C54.1643 9.64073 55.0787 10.3823 55.0787 11.9166ZM47.5705 5.67707V8.69456L50.9396 8.66899C52.1428 8.66899 52.7685 7.95297 52.7685 7.1091C52.7685 6.34194 52.2391 5.67707 51.1802 5.67707H47.5705ZM51.5893 13.4254C52.8166 13.4254 53.2979 12.7094 53.2979 11.9166C53.2979 11.0728 52.7444 10.3567 51.6375 10.3567H47.5946V13.4254H51.5893Z" fill="#213A8B"/>
<path id="Vector_4" d="M62.0575 9.38501L66.7501 15.1899H64.4399L60.5174 10.2545H58.496V15.1899H56.7393V3.9126H58.496V8.5667H60.5174L64.3437 3.9126H66.678L62.0575 9.38501Z" fill="#213A8B"/>
<path id="Vector_5" d="M72.1403 3.65674C75.389 3.65674 77.7473 6.1628 77.7473 9.56387C77.7473 12.9649 75.389 15.471 72.1403 15.471C68.8915 15.471 66.5332 12.9649 66.5332 9.56387C66.5332 6.1628 68.8915 3.65674 72.1403 3.65674ZM72.1403 13.681C74.3302 13.681 75.9665 11.9165 75.9665 9.56387C75.9665 7.18568 74.3542 5.44678 72.1403 5.44678C69.9504 5.44678 68.314 7.21125 68.314 9.56387C68.314 11.9165 69.9504 13.681 72.1403 13.681Z" fill="#213A8B"/>
<path id="Vector_6" d="M89.5149 3.9126H91.1995V15.1899H89.4427V6.80223L85.9534 11.7632H84.8945L81.4052 6.80223V15.1899H79.6484V3.9126H81.333L85.424 9.69187L89.5149 3.9126Z" fill="#213A8B"/>
<path id="Vector_7" d="M99.1889 8.51556C101.523 8.51556 102.799 9.97316 102.799 11.8399C102.799 13.7067 101.523 15.1899 99.3092 15.1899H93.5337V3.9126H101.812V5.67707H95.2904V8.51556H99.1889ZM99.237 13.4254C100.44 13.4254 100.994 12.7094 100.994 11.8655C100.994 11.0216 100.44 10.3056 99.237 10.3056H95.2904V13.4254H99.237Z" fill="#213A8B"/>
<path id="Vector_8" d="M112.497 15.1899L111.342 12.3769H106.312L105.157 15.1899H103.256L107.876 3.9126H109.801L114.422 15.1899H112.497ZM107.01 10.6892H110.668L108.839 6.18851L107.01 10.6892Z" fill="#213A8B"/>
<path id="Vector_9" d="M123.59 3.9126H125.347V15.1899H123.59V10.3567H117.454V15.1899H115.697V3.9126H117.454V8.59227H123.59V3.9126Z" fill="#213A8B"/>
<path id="Vector_10" d="M133 9.38501L137.717 15.1899H135.382L131.46 10.2545H129.438V15.1899H127.682V3.9126H129.438V8.5667H131.46L135.286 3.9126H137.62L133 9.38501Z" fill="#213A8B"/>
<path id="Vector_11" d="M0.788574 9.56388C0.788574 14.7294 4.73518 18.9232 9.6203 18.9232C9.74062 18.9232 9.86094 18.9232 9.98127 18.9232V15.3687H9.6203C6.58815 15.3687 4.15762 12.7604 4.15762 9.56388C4.15762 6.36738 6.61222 3.75904 9.6203 3.75904H9.98127V0.178955C9.86094 0.178955 9.74062 0.178955 9.6203 0.178955C4.73518 0.178955 0.788574 4.37276 0.788574 9.56388Z" fill="#DA5155"/>
<path id="Vector_12" d="M11.3774 0.35791V5.24216H9.62064C7.35856 5.24216 5.55371 7.16006 5.55371 9.56383C5.55371 11.942 7.38262 13.8855 9.62064 13.8855H11.3774V18.7698C15.3961 17.9003 18.4283 14.1156 18.4283 9.5894C18.4283 5.01201 15.3961 1.22736 11.3774 0.35791Z" fill="#213A8B"/>
</g>
<defs>
<clipPath id="clip0_62_61194">
<rect width="137" height="19" fill="white" transform="translate(0.5)"/>
</clipPath>
</defs>
</svg>
